<mxfile host="Electron" modified="2024-07-24T19:38:27.494Z" agent="Mozilla/5.0 (Windows NT 10.0; Win64; x64) AppleWebKit/537.36 (KHTML, like Gecko) draw.io/24.2.5 Chrome/120.0.6099.109 Electron/28.1.0 Safari/537.36" etag="tIdo6nBbZqWCA2QLwpr_" version="24.2.5" type="device">
  <diagram id="C5RBs43oDa-KdzZeNtuy" name="Page-1">
    <mxGraphModel dx="1571" dy="2056" grid="1" gridSize="10" guides="1" tooltips="1" connect="1" arrows="1" fold="1" page="1" pageScale="1" pageWidth="827" pageHeight="1169" math="0" shadow="0">
      <root>
        <mxCell id="WIyWlLk6GJQsqaUBKTNV-0" />
        <mxCell id="WIyWlLk6GJQsqaUBKTNV-1" parent="WIyWlLk6GJQsqaUBKTNV-0" />
        <mxCell id="Jr42eCUc6g5V1k2Y49N9-10" style="edgeStyle=orthogonalEdgeStyle;rounded=0;orthogonalLoop=1;jettySize=auto;html=1;shape=flexArrow;noEdgeStyle=1;orthogonal=1;" edge="1" parent="WIyWlLk6GJQsqaUBKTNV-1" source="LZZLjWpjytnXYlWd8Y8f-5" target="Jr42eCUc6g5V1k2Y49N9-9">
          <mxGeometry relative="1" as="geometry">
            <Array as="points">
              <mxPoint x="432" y="30" />
              <mxPoint x="508" y="30" />
            </Array>
          </mxGeometry>
        </mxCell>
        <mxCell id="LZZLjWpjytnXYlWd8Y8f-5" value="Service Classes" style="rounded=0;whiteSpace=wrap;html=1;fillColor=#FFCE9F;container=0;" parent="WIyWlLk6GJQsqaUBKTNV-1" vertex="1">
          <mxGeometry x="260" width="160" height="60" as="geometry" />
        </mxCell>
        <mxCell id="LZZLjWpjytnXYlWd8Y8f-28" value="BsmDataConverter" style="rounded=0;whiteSpace=wrap;html=1;fillColor=#D4E1F5;container=0;" parent="WIyWlLk6GJQsqaUBKTNV-1" vertex="1">
          <mxGeometry x="260" y="90" width="160" height="60" as="geometry" />
        </mxCell>
        <mxCell id="Jr42eCUc6g5V1k2Y49N9-0" value="DriverAlertDataConverter" style="rounded=0;whiteSpace=wrap;html=1;fillColor=#D4E1F5;container=0;" vertex="1" parent="WIyWlLk6GJQsqaUBKTNV-1">
          <mxGeometry x="260" y="180" width="160" height="60" as="geometry" />
        </mxCell>
        <mxCell id="Jr42eCUc6g5V1k2Y49N9-1" value="TimDataConverter" style="rounded=0;whiteSpace=wrap;html=1;fillColor=#D4E1F5;container=0;" vertex="1" parent="WIyWlLk6GJQsqaUBKTNV-1">
          <mxGeometry x="260" y="270" width="160" height="60" as="geometry" />
        </mxCell>
        <mxCell id="Jr42eCUc6g5V1k2Y49N9-4" style="edgeStyle=orthogonalEdgeStyle;rounded=0;orthogonalLoop=1;jettySize=auto;html=1;noEdgeStyle=1;orthogonal=1;" edge="1" parent="WIyWlLk6GJQsqaUBKTNV-1" source="Jr42eCUc6g5V1k2Y49N9-2" target="Jr42eCUc6g5V1k2Y49N9-3">
          <mxGeometry relative="1" as="geometry">
            <Array as="points">
              <mxPoint x="172" y="230" />
              <mxPoint x="248" y="390" />
            </Array>
          </mxGeometry>
        </mxCell>
        <mxCell id="Jr42eCUc6g5V1k2Y49N9-5" style="edgeStyle=orthogonalEdgeStyle;rounded=0;orthogonalLoop=1;jettySize=auto;html=1;noEdgeStyle=1;orthogonal=1;" edge="1" parent="WIyWlLk6GJQsqaUBKTNV-1" source="Jr42eCUc6g5V1k2Y49N9-2" target="LZZLjWpjytnXYlWd8Y8f-28">
          <mxGeometry relative="1" as="geometry">
            <Array as="points">
              <mxPoint x="174" y="200" />
              <mxPoint x="248" y="120" />
            </Array>
          </mxGeometry>
        </mxCell>
        <mxCell id="Jr42eCUc6g5V1k2Y49N9-6" style="edgeStyle=orthogonalEdgeStyle;rounded=0;orthogonalLoop=1;jettySize=auto;html=1;noEdgeStyle=1;orthogonal=1;" edge="1" parent="WIyWlLk6GJQsqaUBKTNV-1" source="Jr42eCUc6g5V1k2Y49N9-2" target="Jr42eCUc6g5V1k2Y49N9-0">
          <mxGeometry relative="1" as="geometry">
            <Array as="points">
              <mxPoint x="176" y="210" />
              <mxPoint x="248" y="210" />
            </Array>
          </mxGeometry>
        </mxCell>
        <mxCell id="Jr42eCUc6g5V1k2Y49N9-7" style="edgeStyle=orthogonalEdgeStyle;rounded=0;orthogonalLoop=1;jettySize=auto;html=1;noEdgeStyle=1;orthogonal=1;" edge="1" parent="WIyWlLk6GJQsqaUBKTNV-1" source="Jr42eCUc6g5V1k2Y49N9-2" target="Jr42eCUc6g5V1k2Y49N9-1">
          <mxGeometry relative="1" as="geometry">
            <Array as="points">
              <mxPoint x="174" y="220" />
              <mxPoint x="248" y="300" />
            </Array>
          </mxGeometry>
        </mxCell>
        <mxCell id="Jr42eCUc6g5V1k2Y49N9-8" style="edgeStyle=orthogonalEdgeStyle;rounded=0;orthogonalLoop=1;jettySize=auto;html=1;noEdgeStyle=1;orthogonal=1;" edge="1" parent="WIyWlLk6GJQsqaUBKTNV-1" source="Jr42eCUc6g5V1k2Y49N9-2" target="LZZLjWpjytnXYlWd8Y8f-5">
          <mxGeometry relative="1" as="geometry">
            <Array as="points">
              <mxPoint x="172" y="190" />
              <mxPoint x="248" y="30" />
            </Array>
          </mxGeometry>
        </mxCell>
        <mxCell id="Jr42eCUc6g5V1k2Y49N9-2" value="LoggerKafkaConsumer" style="rounded=0;whiteSpace=wrap;html=1;fillColor=#D4E1F5;container=0;" vertex="1" parent="WIyWlLk6GJQsqaUBKTNV-1">
          <mxGeometry y="180" width="160" height="60" as="geometry" />
        </mxCell>
        <mxCell id="Jr42eCUc6g5V1k2Y49N9-3" value="LoggerConfiguration" style="rounded=0;whiteSpace=wrap;html=1;fillColor=#D4E1F5;container=0;" vertex="1" parent="WIyWlLk6GJQsqaUBKTNV-1">
          <mxGeometry x="260" y="360" width="160" height="60" as="geometry" />
        </mxCell>
        <mxCell id="Jr42eCUc6g5V1k2Y49N9-9" value="BaseService" style="rounded=0;whiteSpace=wrap;html=1;fillColor=#D4E1F5;container=0;" vertex="1" parent="WIyWlLk6GJQsqaUBKTNV-1">
          <mxGeometry x="520" width="160" height="60" as="geometry" />
        </mxCell>
        <mxCell id="Jr42eCUc6g5V1k2Y49N9-11" value="logger-kafka-consumer" style="swimlane;whiteSpace=wrap;html=1;" vertex="1" parent="WIyWlLk6GJQsqaUBKTNV-1">
          <mxGeometry x="-30" y="-50" width="740" height="490" as="geometry" />
        </mxCell>
        <mxCell id="Jr42eCUc6g5V1k2Y49N9-12" value="extend" style="text;html=1;align=center;verticalAlign=middle;whiteSpace=wrap;rounded=0;" vertex="1" parent="Jr42eCUc6g5V1k2Y49N9-11">
          <mxGeometry x="470" y="50" width="60" height="30" as="geometry" />
        </mxCell>
        <mxCell id="Jr42eCUc6g5V1k2Y49N9-14" value="uses" style="text;html=1;align=center;verticalAlign=middle;whiteSpace=wrap;rounded=0;" vertex="1" parent="Jr42eCUc6g5V1k2Y49N9-11">
          <mxGeometry x="210" y="80" width="60" height="30" as="geometry" />
        </mxCell>
        <mxCell id="Jr42eCUc6g5V1k2Y49N9-15" value="uses" style="text;html=1;align=center;verticalAlign=middle;whiteSpace=wrap;rounded=0;" vertex="1" parent="Jr42eCUc6g5V1k2Y49N9-11">
          <mxGeometry x="240" y="190" width="60" height="30" as="geometry" />
        </mxCell>
        <mxCell id="Jr42eCUc6g5V1k2Y49N9-16" value="uses" style="text;html=1;align=center;verticalAlign=middle;whiteSpace=wrap;rounded=0;" vertex="1" parent="Jr42eCUc6g5V1k2Y49N9-11">
          <mxGeometry x="230" y="230" width="60" height="30" as="geometry" />
        </mxCell>
        <mxCell id="Jr42eCUc6g5V1k2Y49N9-17" value="uses" style="text;html=1;align=center;verticalAlign=middle;whiteSpace=wrap;rounded=0;" vertex="1" parent="Jr42eCUc6g5V1k2Y49N9-11">
          <mxGeometry x="240" y="290" width="60" height="30" as="geometry" />
        </mxCell>
        <mxCell id="Jr42eCUc6g5V1k2Y49N9-18" value="uses" style="text;html=1;align=center;verticalAlign=middle;whiteSpace=wrap;rounded=0;" vertex="1" parent="Jr42eCUc6g5V1k2Y49N9-11">
          <mxGeometry x="210" y="390" width="60" height="30" as="geometry" />
        </mxCell>
      </root>
    </mxGraphModel>
  </diagram>
</mxfile>
